<svg xmlns="http://www.w3.org/2000/svg" width="71" height="64" viewBox="0 0 71 64" fill="none">
  <path fill-rule="evenodd" clip-rule="evenodd" d="M33.0663 15.4334C30.8932 7.69709 22.7539 6.48587 16.116 9.14277C8.72748 12.0732 2.56376 20.3174 0.98332 27.8973C-0.834186 36.6495 2.32669 47.4724 9.47819 53.1769C13.8639 56.6934 20.3832 55.951 23.7021 52.5518C18.2496 55.0524 14.7331 53.5286 11.1772 50.5201C5.17149 45.5188 2.52425 36.0243 4.06518 28.5616C5.44806 21.9975 10.9006 14.6129 17.3014 12.0732C22.7144 9.92421 28.3249 10.8619 30.8932 16.5274C32.197 19.3797 32.5131 22.9743 31.6043 26.2172C33.5404 23.5604 34.1331 19.1843 33.0663 15.4334ZM66.137 47.9413C67.4408 53.2551 64.2009 58.3735 59.183 59.8192C52.5057 61.6947 44.7615 60.3271 39.0324 56.5762C43.9318 62.398 52.6242 65.2111 60.0523 62.7496C66.3345 60.6397 69.2979 53.763 66.137 47.9413ZM69.2188 27.9364C67.6384 20.3174 61.4747 12.1122 54.0861 9.18183C47.4483 6.52493 39.309 7.73618 37.1359 15.4724C36.0691 19.2234 36.6618 23.5604 38.5978 26.2172C37.6495 22.9743 38.0051 19.3797 39.309 16.5274C41.8772 10.901 47.4483 9.92421 52.9008 12.0732C59.3016 14.6129 64.7541 21.9975 66.137 28.5616C67.7174 36.0634 65.0702 45.5188 59.0645 50.5591C55.469 53.5677 51.992 55.0915 46.5395 52.5909C49.8189 55.9901 56.3382 56.7325 60.7635 53.216C67.8755 47.4724 71.0363 36.6885 69.2188 27.9364ZM35.1208 0.390625C31.1302 0.390625 27.1791 2.69587 25.3616 7.22823C28.483 4.72762 31.8019 3.51639 35.1208 3.51639C38.4398 3.51639 41.7192 4.76669 44.88 7.22823C43.023 2.6568 39.0719 0.390625 35.1208 0.390625ZM11.0191 59.8192C5.96171 58.3735 2.76132 53.216 4.06518 47.9413C0.904298 53.8021 3.86762 60.6788 10.1894 62.7496C17.5779 65.2111 26.2704 62.398 31.2092 56.5762C25.4801 60.3271 17.6965 61.6947 11.0191 59.8192Z" fill="#6BBDDD"/>
  <path d="M54.481 64C48.6334 64 42.5882 61.3822 38.7556 56.8107L37.1752 54.8962L39.2693 56.2637C45.0774 60.0537 52.703 61.304 59.1433 59.4676C64.1217 58.022 67.0455 52.9817 65.8602 48.0195C64.5168 50.1294 62.8968 52.0049 61.0003 53.5287C56.2985 57.3187 49.5816 56.2637 46.3022 52.8645L44.9588 51.497L46.7368 52.3175C51.9918 54.7399 55.3898 53.2552 58.8667 50.3248C64.5168 45.558 67.4801 36.4542 65.8207 28.6789C64.3983 21.8022 58.7877 14.8474 52.8215 12.4249C48.2383 10.6276 42.3906 10.7448 39.7039 16.6838C38.4 19.5751 38.1234 23.0916 38.9927 26.1392L39.5458 28.0928L38.321 26.4518C36.3059 23.7558 35.7133 19.3016 36.7801 15.3944C37.6493 12.3468 39.4668 10.0806 42.1141 8.79121C42.9833 8.36141 43.9711 8.04885 44.9588 7.85349L44.6032 7.57998C38.479 2.73505 31.6436 2.73505 25.5194 7.57998L25.1638 7.85349C26.1911 8.04885 27.1394 8.36141 28.0481 8.79121C30.6954 10.0806 32.5129 12.3858 33.3821 15.3944C34.4489 19.3016 33.8563 23.7558 31.8412 26.4518L30.6559 28.0537L31.209 26.1392C32.0783 23.0916 31.8017 19.5751 30.4978 16.6838C27.8111 10.7448 21.9634 10.5885 17.3802 12.4249C11.414 14.8083 5.80344 21.8022 4.38104 28.6789C2.76109 36.4542 5.68491 45.558 11.335 50.3248C14.8119 53.2552 18.2099 54.7008 23.4649 52.3175L25.2429 51.497L23.8995 52.8645C20.6201 56.2247 13.9032 57.2796 9.20139 53.5287C7.34437 52.0439 5.68491 50.1685 4.34153 48.0195C3.1562 53.0208 6.08002 58.022 11.0584 59.4676C17.5382 61.2649 25.1243 60.0537 30.9324 56.2637L33.0265 54.8962L31.4066 56.8107C26.2701 62.8669 17.3011 65.5238 9.99161 63.1013C6.79121 62.0464 4.30202 59.7411 3.07718 56.7717C1.89185 53.8413 2.0894 50.6374 3.63033 47.7851L3.8674 47.3162C0.548476 41.6508 -0.834409 34.4225 0.508965 27.8974C2.36598 19.6923 8.80628 11.6826 15.9973 8.83029C18.9606 7.65813 22.0425 7.30647 24.7687 7.69719L25.0058 7.07205C26.7443 2.69598 30.6164 0 35.1206 0C39.5854 0 43.4574 2.69598 45.2354 7.07205L45.4725 7.69719C48.1988 7.2674 51.2806 7.65813 54.2439 8.83029C61.4349 11.6826 67.8752 19.6923 69.6137 27.8584C70.9966 34.3834 69.6137 41.6508 66.2553 47.2772L66.4923 47.746C68.0333 50.5983 68.2308 53.8022 67.0455 56.7326C65.8602 59.7021 63.3315 62.0073 60.1706 63.0623C58.3531 63.6874 56.417 64 54.481 64ZM41.1263 58.1783C46.1837 62.6715 53.7303 64.4298 59.9335 62.398C62.8968 61.4212 65.2675 59.2332 66.3738 56.4591C67.1245 54.5446 67.2826 52.5519 66.8084 50.5983C66.6504 54.9353 63.7266 58.8816 59.3013 60.1319C53.4537 61.812 46.7368 61.0305 41.1263 58.1783ZM3.43278 50.5983C2.95865 52.5519 3.11669 54.5836 3.8674 56.4982C4.97371 59.2723 7.34437 61.4212 10.3077 62.4371C16.5109 64.4689 24.018 62.7106 29.0754 58.2173C23.4649 61.0696 16.748 61.8119 10.9004 60.1709C6.51464 58.8815 3.55131 54.9743 3.43278 50.5983ZM48.6334 53.7631C51.9523 55.6777 56.8517 55.8339 60.4867 52.9035C62.4622 51.3016 64.1612 49.2698 65.5441 46.9646L65.1095 45.2063L65.8207 46.4957C68.9025 41.0647 70.1669 34.149 68.863 27.9756C67.2035 20.044 60.9213 12.2686 53.9674 9.45544C49.8977 7.85348 45.591 7.81441 42.4697 9.33822C39.9805 10.5495 38.321 12.6203 37.5308 15.5116C36.7406 18.3248 36.8591 21.4505 37.8469 23.9121C37.5703 21.3333 37.9654 18.6374 39.0322 16.293C41.4424 10.9402 46.8554 9.18195 53.0981 11.6435C59.3013 14.105 65.07 21.3333 66.5319 28.4054C68.2308 36.4542 65.1885 45.8315 59.3013 50.7546C56.101 53.4896 53.0191 55.0134 48.6334 53.7631ZM4.65762 47.0037C6.04051 49.3089 7.73948 51.3406 9.71503 52.9426C13.35 55.873 18.2494 55.7167 21.5683 53.8022C17.1826 55.0525 14.1008 53.5287 10.9399 50.8718C5.09224 45.9096 2.04989 36.4933 3.70936 28.4835C5.17126 21.4115 10.9794 14.1831 17.1431 11.7216C23.3858 9.26007 28.7593 11.0183 31.209 16.3712C32.2758 18.6764 32.6709 21.4115 32.3943 23.9902C33.3426 21.5287 33.5007 18.4029 32.7104 15.5897C31.9202 12.6984 30.2212 10.6276 27.7716 9.41637C24.6107 7.89256 20.304 7.93163 16.2739 9.53358C9.31992 12.3077 3.03767 20.083 1.37821 28.0537C0.0743438 34.2662 1.3387 41.1428 4.42055 46.5739L5.09224 45.2845L4.65762 47.0037ZM35.1206 3.12576C38.1234 3.12576 41.0868 4.10256 43.9316 6.05616C42.0745 2.73504 38.8346 0.742378 35.1206 0.742378C31.4066 0.742378 28.1272 2.77413 26.3097 6.09525C29.1149 4.14165 32.0783 3.12576 35.1206 3.12576Z" fill="#6BBDDD"/>
  <path fill-rule="evenodd" clip-rule="evenodd" d="M31.7233 46.5348C31.4072 46.3004 28.2068 43.8779 28.6019 40.2442C28.681 39.5409 29.0366 39.072 29.3131 38.486C29.5107 38.0562 29.1946 37.5873 28.76 37.8999C28.4044 38.1734 28.2068 38.6813 28.1278 39.072C27.8907 40.127 28.0488 41.2992 28.3649 42.315C28.918 43.9951 29.9058 45.4408 31.7628 46.6911L31.7233 46.5348Z" fill="#6BBDDD"/>
  <path fill-rule="evenodd" clip-rule="evenodd" d="M32.592 48.1757C29.2335 47.0817 23.6625 44.503 21.3313 38.564C20.6992 36.9621 20.9757 35.5555 20.8967 33.9535C20.8572 32.8204 19.6324 32.0781 19.0397 33.2111C18.5261 34.1879 18.6841 35.5164 18.9607 36.5323C19.6324 39.0329 21.2523 41.4944 23.1093 43.3308C25.559 45.7923 28.4828 47.5897 32.3154 48.5665C34.8441 49.2307 35.5158 49.3088 38.084 48.7227C42.1931 47.785 45.275 45.9486 47.8432 43.3308C49.7002 41.4944 51.3202 39.0719 51.9919 36.5323C52.2685 35.5164 52.4265 34.1879 51.9129 33.2111C51.3202 32.0781 50.0953 32.8204 50.0558 33.9535C49.9768 35.5555 50.2534 36.9621 49.6212 38.564C47.1715 44.7374 41.2449 47.3162 37.926 48.293C35.5158 49.0744 35.0417 48.9572 32.592 48.1757Z" fill="#6BBDDD"/>
  <path fill-rule="evenodd" clip-rule="evenodd" d="M23.3065 34.696C24.5314 30.4372 27.4552 28.7571 30.4975 29.1869C31.2483 29.3041 32.1175 29.6167 32.6311 30.3981C32.9077 30.7888 32.9472 31.4531 32.5521 31.8047C31.999 32.2736 31.1692 31.8438 31.2087 31.0623C31.2087 30.867 31.3668 30.5935 31.2878 30.3981C31.1297 29.9683 30.6161 29.812 30.221 29.7339C29.5888 29.5776 28.9171 29.6167 28.2849 29.812C27.0206 30.2028 26.0328 31.1795 25.3611 32.2345C24.6499 33.3676 23.9387 35.0086 24.3733 36.3761C25.5982 33.3285 29.3122 34.3444 29.5888 37.2357C28.8776 36.1417 27.7713 36.6106 27.2576 37.5874C26.7045 38.6032 26.9416 40.0098 27.2181 41.0648C27.9688 43.917 30.0629 46.6912 32.9472 47.707C33.2633 47.8242 33.3028 48.0978 33.0658 47.9805C24.6499 44.7376 22.2793 38.1735 23.3065 34.696Z" fill="#6BBDDD"/>
  <path fill-rule="evenodd" clip-rule="evenodd" d="M39.27 46.5348C39.5861 46.3004 42.7865 43.8779 42.3913 40.2442C42.3123 39.5409 41.9567 39.072 41.6801 38.486C41.4826 38.0562 41.7987 37.5873 42.2333 37.8999C42.5889 38.1734 42.7865 38.6813 42.8655 39.072C43.1025 40.127 42.9445 41.2992 42.6284 42.315C42.0753 43.9951 41.0875 45.4408 39.2305 46.6911L39.27 46.5348Z" fill="#6BBDDD"/>
  <path fill-rule="evenodd" clip-rule="evenodd" d="M47.7246 34.696C46.4998 30.4372 43.576 28.7571 40.5336 29.1869C39.7829 29.3041 38.9137 29.6167 38.4 30.3981C38.1234 30.7888 38.0839 31.4531 38.479 31.8047C39.0322 32.2736 39.8619 31.8438 39.8224 31.0623C39.8224 30.867 39.6644 30.5935 39.7434 30.3981C39.9014 29.9683 40.4151 29.812 40.8102 29.7339C41.4424 29.5776 42.114 29.6167 42.7462 29.812C44.0106 30.2028 44.9983 31.1795 45.67 32.2345C46.3812 33.3676 47.0924 35.0086 46.6578 36.3761C45.433 33.3285 41.7189 34.3444 41.4424 37.2357C42.1536 36.1417 43.2599 36.6106 43.7735 37.5874C44.3267 38.6032 44.0896 40.0098 43.813 41.0648C43.0623 43.917 40.9682 46.6912 38.0839 47.707C37.7678 47.8242 37.7283 48.0978 37.9654 47.9805C46.3417 44.7376 48.7124 38.1735 47.7246 34.696Z" fill="#6BBDDD"/>
  <path fill-rule="evenodd" clip-rule="evenodd" d="M33.422 52.7473C32.3552 52.0831 31.9996 51.6143 32.1182 51.2626C32.2367 50.7156 33.3825 50.4421 34.5283 50.2468C32.6318 50.1295 31.6045 50.403 31.2094 50.95C30.6563 51.6533 31.407 52.7864 32.8294 53.6851C33.6591 54.193 34.5678 54.4665 35.5161 54.4665C36.4249 54.4665 37.3336 54.2321 38.2029 53.6851C39.6253 52.8255 40.376 51.6924 39.8228 50.95C39.4277 50.4421 38.4004 50.1295 36.5039 50.2468C37.6497 50.4421 38.7955 50.7156 38.9141 51.2626C38.9931 51.6143 38.677 52.1222 37.6102 52.7473C36.978 53.1381 36.2668 53.3334 35.5556 53.3334C34.8049 53.3334 34.0937 53.1381 33.422 52.7473Z" fill="#6BBDDD"/>
  <path d="M35.516 54.7401C34.5283 54.7401 33.5405 54.4666 32.6712 53.9196C31.5649 53.2553 30.8932 52.4348 30.7352 51.7315C30.6562 51.3799 30.7352 51.0283 30.9723 50.7157C31.4859 50.0514 32.7107 49.7779 34.5678 49.8951L35.516 49.9733L36.4643 49.8951C38.3608 49.7779 39.5462 50.0514 40.0598 50.7157C40.2969 50.9892 40.3364 51.3408 40.2969 51.7315C40.1388 52.4739 39.4671 53.2553 38.3608 53.9196C37.4916 54.4275 36.5038 54.7401 35.516 54.7401ZM32.0391 50.7157C31.6835 50.8329 31.5254 50.9892 31.4464 51.0673C31.3279 51.2236 31.3279 51.3799 31.3279 51.5752C31.4464 52.1222 32.0391 52.7865 32.9478 53.3335C34.4887 54.2712 36.4248 54.2712 37.9657 53.3335C38.8745 52.7865 39.5066 52.1222 39.5857 51.5752C39.6252 51.3799 39.5857 51.2236 39.4671 51.0673C39.3881 50.9892 39.2301 50.8329 38.8745 50.7157C38.993 50.8329 39.1115 50.9892 39.151 51.1455C39.3486 51.8878 38.4003 52.5521 37.6891 52.9818C37.0174 53.4116 36.2272 53.607 35.4765 53.607C35.437 53.607 35.437 53.607 35.437 53.607C34.6468 53.607 33.8961 53.3726 33.2244 52.9818C32.5132 52.5521 31.5649 51.8878 31.7625 51.1455C31.8415 50.9892 31.9205 50.872 32.0391 50.7157ZM35.516 53.0209C36.1877 53.0209 36.8199 52.8256 37.4126 52.4739C38.6374 51.7315 38.5979 51.3799 38.5979 51.3408C38.5584 51.1845 38.2423 50.872 36.4643 50.5594L35.516 50.4031L34.6073 50.5594C32.8293 50.872 32.5132 51.1845 32.4737 51.3408C32.4737 51.419 32.4342 51.7315 33.659 52.4739C34.1727 52.8256 34.8443 53.0209 35.516 53.0209C35.516 53.0209 35.4765 53.0209 35.516 53.0209Z" fill="#6BBDDD"/>
  <path fill-rule="evenodd" clip-rule="evenodd" d="M40.297 40.3615C39.1907 41.3774 36.8596 41.4555 36.3459 39.7364C37.1756 41.6118 35.8323 42.5886 35.5557 44.1515C35.5557 44.1906 35.5557 44.2687 35.5162 44.3078C35.5162 44.2687 35.4767 44.1906 35.4767 44.1515C35.2001 42.5886 33.8567 41.6118 34.6865 39.7364C34.1333 41.4555 31.8417 41.3774 30.7354 40.3615C34.2518 41.1039 35.0025 37.4702 35.5557 35.0477C36.0298 37.4311 36.7805 41.1039 40.297 40.3615Z" fill="#6BBDDD"/>
</svg>